<?xml version="1.0" encoding="UTF-8" standalone="no"?>
<svg
   width="256px"
   height="146px"
   viewBox="0 0 256 146"
   version="1.1"
   preserveAspectRatio="xMidYMid"
   id="svg6"
   sodipodi:docname="medium-logo-white.svg"
   inkscape:version="1.1 (c4e8f9e, 2021-05-24)"
   xmlns:inkscape="http://www.inkscape.org/namespaces/inkscape"
   xmlns:sodipodi="http://sodipodi.sourceforge.net/DTD/sodipodi-0.dtd"
   xmlns="http://www.w3.org/2000/svg"
   xmlns:svg="http://www.w3.org/2000/svg">
  <defs
     id="defs10" />
  <sodipodi:namedview
     id="namedview8"
     pagecolor="#ffffff"
     bordercolor="#666666"
     borderopacity="1.0"
     inkscape:pageshadow="2"
     inkscape:pageopacity="0.0"
     inkscape:pagecheckerboard="0"
     showgrid="false"
     inkscape:zoom="2.1633266"
     inkscape:cx="128.27467"
     inkscape:cy="54.3145"
     inkscape:window-width="1280"
     inkscape:window-height="667"
     inkscape:window-x="0"
     inkscape:window-y="25"
     inkscape:window-maximized="0"
     inkscape:current-layer="svg6" />
  <g
     id="g4">
    <path
       d="M72.2009141,1.42108547e-14 C112.076502,1.42108547e-14 144.399375,32.5485469 144.399375,72.6964154 C144.399375,112.844284 112.074049,145.390378 72.2009141,145.390378 C32.327779,145.390378 0,112.844284 0,72.6964154 C0,32.5485469 32.325326,1.42108547e-14 72.2009141,1.42108547e-14 Z M187.500628,4.25836743 C207.438422,4.25836743 223.601085,34.8960455 223.601085,72.6964154 L223.603538,72.6964154 C223.603538,110.486973 207.440875,141.134463 187.503081,141.134463 C167.565287,141.134463 151.402624,110.486973 151.402624,72.6964154 C151.402624,34.9058574 167.562834,4.25836743 187.500628,4.25836743 Z M243.303393,11.3867175 C250.314,11.3867175 256,38.835526 256,72.6964154 C256,106.547493 250.316453,134.006113 243.303393,134.006113 C236.290333,134.006113 230.609239,106.554852 230.609239,72.6964154 C230.609239,38.837979 236.292786,11.3867175 243.303393,11.3867175 Z"
       fill="#000000"
       id="path2"
       style="fill:#ffffff;fill-opacity:1" />
  </g>
</svg>
